<svg width="17" height="16" viewBox="0 0 17 16" fill="none" xmlns="http://www.w3.org/2000/svg">
<path opacity="0.4" d="M14.6461 0.719971C14.9047 0.719952 15.1391 0.719935 15.3318 0.739333C15.5385 0.760144 15.7636 0.808137 15.9712 0.949723C16.1384 1.06379 16.2772 1.21501 16.3762 1.39195C16.4997 1.61259 16.5261 1.84188 16.5265 2.04917C16.5268 2.24154 16.5034 2.47273 16.4777 2.72621V2.72623C16.4334 3.16353 16.3911 3.58202 16.3321 3.87915C16.2702 4.19146 16.1753 4.4787 15.9845 4.73588C15.8176 4.96096 15.6063 5.1496 15.3639 5.29063C15.0878 5.45131 14.7914 5.51545 14.4724 5.54507C14.1682 5.57333 13.7955 5.57332 13.3497 5.57331H13.3497H3.6499H3.64989C3.20413 5.57332 2.83147 5.57333 2.52717 5.54507C2.20821 5.51545 1.91186 5.45131 1.63569 5.29063C1.39328 5.1496 1.18201 4.96096 1.01509 4.73588C0.82435 4.4787 0.729443 4.19146 0.667489 3.87915C0.608546 3.58202 0.566178 3.16357 0.521903 2.72625C0.496209 2.47276 0.472774 2.24155 0.473149 2.04917C0.473552 1.84188 0.49988 1.61259 0.62338 1.39195C0.722416 1.21501 0.861235 1.06379 1.02844 0.949723C1.23598 0.808137 1.46112 0.760144 1.66785 0.739333C1.86055 0.719935 2.09488 0.719952 2.35348 0.719971H2.35353H14.6461H14.6461Z" fill="#006EFF"/>
<path fill-rule="evenodd" clip-rule="evenodd" d="M6.25977 7.25326C6.25977 6.84089 6.59406 6.50659 7.00643 6.50659H9.9931C10.4055 6.50659 10.7398 6.84089 10.7398 7.25326C10.7398 7.66563 10.4055 7.99993 9.9931 7.99993H7.00643C6.59406 7.99993 6.25977 7.66563 6.25977 7.25326Z" fill="#006EFF"/>
<path d="M1.24283 4.99585C1.22783 5.05357 1.21985 5.11409 1.21985 5.17645V8.86782C1.21983 10.1768 1.21981 11.2327 1.33302 12.0632C1.45064 12.9261 1.70238 13.653 2.2873 14.2299C2.8717 14.8064 3.60705 15.054 4.48008 15.1698C5.32137 15.2814 6.39115 15.2814 7.71883 15.2813H9.28087C10.6085 15.2814 11.6783 15.2814 12.5196 15.1698C13.3927 15.054 14.128 14.8064 14.7124 14.2299C15.2973 13.653 15.5491 12.9261 15.6667 12.0632C15.7799 11.2327 15.7799 10.1768 15.7798 8.86783V5.17645C15.7798 5.11409 15.7719 5.05357 15.7569 4.99585C15.6385 5.10954 15.5066 5.20901 15.364 5.292C15.0878 5.45268 14.7915 5.51682 14.4725 5.54644C14.4246 5.55088 14.3751 5.55463 14.3238 5.55778V8.8148C14.3238 10.1894 14.3223 11.1473 14.2238 11.8699C14.1282 12.5714 13.9535 12.9422 13.6855 13.2066C13.417 13.4714 13.0395 13.6444 12.3266 13.739C11.5931 13.8363 10.6211 13.8378 9.22785 13.8378H7.77185C6.37864 13.8378 5.4066 13.8363 4.67311 13.739C3.96018 13.6444 3.58271 13.4714 3.31421 13.2066C3.04622 12.9422 2.87152 12.5714 2.77591 11.8699C2.67741 11.1473 2.67585 10.1894 2.67585 8.8148V5.55778C2.6246 5.55463 2.57506 5.55088 2.52721 5.54644C2.20825 5.51682 1.9119 5.45268 1.63573 5.292C1.49308 5.20901 1.36122 5.10953 1.24283 4.99585Z" fill="#006EFF"/>
</svg>
