<svg width="19" height="19" viewBox="0 0 19 19" fill="none" xmlns="http://www.w3.org/2000/svg">
<path opacity="0.3" d="M17.4166 10.1307V9.70278C17.4166 8.26162 17.4166 7.10645 17.3513 6.16675H1.64849C1.58325 7.10645 1.58325 8.26162 1.58325 9.70278V10.1307C1.58325 13.7618 1.58325 15.5773 2.62668 16.7054C3.67012 17.8334 5.34949 17.8334 8.70825 17.8334H10.2916C13.6503 17.8334 15.3297 17.8334 16.3732 16.7054C17.4166 15.5773 17.4166 13.7618 17.4166 10.1307Z" fill="#525866"/>
<path d="M10.2915 2H8.7082C5.34944 2 3.67006 2 2.62663 3.12803C1.99733 3.80836 1.74757 4.73875 1.64844 6.16667H17.3513C17.2522 4.73875 17.0024 3.80836 16.3731 3.12803C15.3297 2 13.6503 2 10.2915 2Z" fill="white"/>
<path d="M14.5 1.16675V2.83341M4.5 1.16675V2.83341" stroke="#525866" stroke-width="1.5" stroke-linecap="round" stroke-linejoin="round"/>
<path d="M9.49634 10.3333H9.50382M9.49634 13.6666H9.50382M12.8259 10.3333H12.8334M6.16675 10.3333H6.17422M6.16675 13.6666H6.17422" stroke="#525866" stroke-width="2" stroke-linecap="round" stroke-linejoin="round"/>
<path d="M2.41675 6.16675H16.5834" stroke="#525866" stroke-width="1.5" stroke-linecap="round" stroke-linejoin="round"/>
<path d="M1.58325 9.7027C1.58325 6.07161 1.58325 4.25607 2.62668 3.12803C3.67012 2 5.34949 2 8.70825 2H10.2916C13.6503 2 15.3297 2 16.3732 3.12803C17.4166 4.25607 17.4166 6.07161 17.4166 9.7027V10.1306C17.4166 13.7617 17.4166 15.5773 16.3732 16.7053C15.3297 17.8333 13.6503 17.8333 10.2916 17.8333H8.70825C5.34949 17.8333 3.67012 17.8333 2.62668 16.7053C1.58325 15.5773 1.58325 13.7617 1.58325 10.1306V9.7027Z" stroke="#525866" stroke-width="1.5" stroke-linecap="round" stroke-linejoin="round"/>
<path d="M2 6.16675H17" stroke="#525866" stroke-width="1.5" stroke-linecap="round" stroke-linejoin="round"/>
</svg>
