<svg width="17" height="17" viewBox="0 0 17 17" fill="none" xmlns="http://www.w3.org/2000/svg">
<path opacity="0.4" d="M3.3942 0.0586757C3.81921 0.146519 4.15768 0.432073 4.36798 0.809347L5.03789 2.01118C5.28464 2.45383 5.4923 2.82635 5.62791 3.15018C5.77176 3.49369 5.8572 3.83243 5.81814 4.20695C5.77909 4.58147 5.6256 4.8953 5.41397 5.20174C5.21446 5.49062 4.93442 5.81228 4.60164 6.19449L4.60164 6.1945L3.61688 7.32564C3.44041 7.52834 3.35218 7.62969 3.34412 7.75636C3.33605 7.88304 3.40837 7.99123 3.553 8.20763C4.78569 10.0519 6.44705 11.7139 8.29287 12.9476C8.50926 13.0922 8.61746 13.1646 8.74414 13.1565C8.87082 13.1484 8.97217 13.0602 9.17487 12.8837L10.3061 11.8989C10.6883 11.5661 11.0099 11.2861 11.2988 11.0866C11.6053 10.875 11.9191 10.7215 12.2936 10.6824C12.6681 10.6434 13.0069 10.7288 13.3504 10.8727C13.6742 11.0083 14.0467 11.2159 14.4893 11.4626L14.4894 11.4627L15.6912 12.1326C16.0685 12.3429 16.354 12.6814 16.4419 13.1064C16.5306 13.5358 16.3997 13.9675 16.1106 14.3223C15.0614 15.6095 13.3804 16.4292 11.617 16.0734C10.5331 15.8548 9.46357 15.4905 8.17004 14.7486C5.57103 13.2581 3.24072 10.9265 1.75191 8.33052C1.01008 7.03699 0.64579 5.9675 0.427132 4.88356C0.0714101 3.12014 0.891036 1.43918 2.17831 0.39C2.53308 0.100844 2.96475 -0.0300846 3.3942 0.0586757Z" fill="#0E121B"/>
</svg>
