<svg width="17" height="17" viewBox="0 0 17 17" fill="none" xmlns="http://www.w3.org/2000/svg">
<path fill-rule="evenodd" clip-rule="evenodd" d="M3.6253 3.62408C3.97108 3.2783 4.53169 3.2783 4.87747 3.62408L8.50138 7.24799L12.1253 3.62408C12.4711 3.2783 13.0317 3.2783 13.3775 3.62408C13.7232 3.96986 13.7232 4.53047 13.3775 4.87625L9.75355 8.50016L13.3775 12.1241C13.7232 12.4699 13.7232 13.0305 13.3775 13.3762C13.0317 13.722 12.4711 13.722 12.1253 13.3762L8.50138 9.75233L4.87747 13.3762C4.53169 13.722 3.97108 13.722 3.6253 13.3762C3.27952 13.0305 3.27952 12.4699 3.6253 12.1241L7.24922 8.50016L3.6253 4.87625C3.27952 4.53047 3.27952 3.96986 3.6253 3.62408Z" fill="#006EFF"/>
</svg>
