<svg width="26" height="26" viewBox="0 0 26 26" fill="none" xmlns="http://www.w3.org/2000/svg">
<mask id="mask0_1_12339" style="mask-type:alpha" maskUnits="userSpaceOnUse" x="1" y="1" width="24" height="24">
<circle cx="13.0002" cy="13.0002" r="11.9167" fill="#D9D9D9"/>
</mask>
<g mask="url(#mask0_1_12339)">
<rect width="26" height="26" fill="#006EFF"/>
</g>
<path d="M10.1125 8.47267C9.65966 8.01985 8.92549 8.01985 8.47267 8.47267C8.01985 8.92549 8.01985 9.65966 8.47267 10.1125L11.3599 12.9997L8.47267 15.8869C8.01985 16.3397 8.01985 17.0739 8.47267 17.5267C8.92549 17.9796 9.65966 17.9796 10.1125 17.5267L12.9997 14.6395L15.8869 17.5267C16.3397 17.9796 17.0739 17.9796 17.5267 17.5267C17.9795 17.0739 17.9795 16.3397 17.5267 15.8869L14.6395 12.9997L17.5267 10.1125C17.9795 9.65966 17.9795 8.92549 17.5267 8.47267C17.0739 8.01985 16.3397 8.01985 15.8869 8.47267L12.9997 11.3599L10.1125 8.47267Z" fill="white"/>
</svg>
