<svg width="18" height="17" viewBox="0 0 18 17" fill="none" xmlns="http://www.w3.org/2000/svg">
<path opacity="0.4" d="M10.7863 0.637207C10.839 0.725626 10.8824 0.811725 10.9168 0.894C11.1538 1.34573 11.2392 1.86825 11.1064 2.35725C10.9666 2.87225 10.5973 3.29792 10.0336 3.52128C9.78364 3.6203 9.69918 3.71531 9.66238 3.77089C9.61698 3.83944 9.59087 3.92517 9.55677 4.11224L9.54752 4.16432C9.51851 4.32962 9.47393 4.58361 9.35402 4.82556C9.20664 5.12294 8.96529 5.37671 8.58967 5.57515C7.55941 6.11945 6.16864 5.89301 4.91949 4.57311C4.315 3.93439 4.08874 3.75432 3.68305 3.7115C3.67548 3.7107 3.66792 3.70975 3.66038 3.70864C3.40694 3.67144 2.89616 3.70377 2.32106 3.98357C1.44794 5.27213 0.9375 6.82724 0.9375 8.50101C0.9375 12.8881 4.44153 16.4569 8.80358 16.5612C8.74746 16.5195 8.6972 16.4804 8.65327 16.4447C8.19375 16.1004 7.93532 15.6707 7.90858 15.1735C7.88364 14.7097 8.06756 14.2823 8.26844 13.9369C8.5613 13.4332 8.65031 13.2704 8.69633 13.0857C8.7452 12.8896 8.74927 12.6541 8.74927 11.9844C8.74927 11.6152 8.80318 11.2431 8.96849 10.9104C9.1404 10.5645 9.41547 10.2968 9.79011 10.1237C10.491 9.79979 11.509 9.82225 12.8596 10.0924C13.0148 10.1234 13.1779 10.1 13.3926 10.0116C13.571 9.93827 13.7415 9.8406 13.9514 9.72035C14.017 9.68282 14.0863 9.64308 14.161 9.60119C14.7487 9.27147 15.552 8.87932 16.5788 9.24017C16.6033 9.2488 16.6272 9.25911 16.6503 9.27104C16.7477 9.32131 16.8676 9.39549 17.0019 9.49384C17.0419 9.16829 17.0625 8.83694 17.0625 8.50101C17.0625 4.6617 14.3795 1.45021 10.7863 0.637207Z" fill="#525866"/>
<path d="M8.96344 0.438721C9.54097 0.76706 9.81198 1.15789 9.88315 1.33889C9.89158 1.36035 9.90133 1.38126 9.91233 1.40152C10.0463 1.64828 10.0686 1.88598 10.0206 2.06256C9.97686 2.22382 9.8645 2.37827 9.61906 2.47552C9.20903 2.63798 8.91665 2.85939 8.72428 3.14991C8.54051 3.42745 8.48512 3.7175 8.44991 3.91066L8.44456 3.94004C8.40822 4.13975 8.39078 4.23563 8.34593 4.32613C8.31297 4.39263 8.25073 4.48195 8.06406 4.58057C7.59488 4.82845 6.73649 4.85659 5.73649 3.79995C5.15876 3.18951 4.67345 2.68878 3.81216 2.59405C3.72793 2.58219 3.63551 2.5746 3.53613 2.57225C4.96396 1.25585 6.86991 0.448001 8.96344 0.438721Z" fill="#525866"/>
<path d="M16.7432 10.7544C16.5015 10.5116 16.2874 10.3576 16.1664 10.2884C15.6495 10.1216 15.2404 10.2856 14.7114 10.5825C14.6605 10.611 14.6067 10.6419 14.5506 10.6741C14.3299 10.8009 14.0737 10.948 13.8204 11.0522C13.4834 11.1908 13.0855 11.285 12.6389 11.1957C11.311 10.9301 10.6102 10.9841 10.262 11.145C10.112 11.2143 10.0299 11.3024 9.97584 11.4112C9.91514 11.5334 9.87418 11.7151 9.87418 11.9845L9.87419 12.0597C9.87435 12.6258 9.87446 13.0104 9.78785 13.3579C9.69856 13.7162 9.52099 14.0213 9.2741 14.4454L9.24086 14.5025C9.07938 14.7802 9.02448 14.9759 9.03186 15.1132C9.03724 15.2132 9.07833 15.3597 9.33412 15.5493C9.34144 15.5547 9.34863 15.5603 9.35568 15.5661C9.60113 15.7672 10.1168 16.1104 10.7381 16.3758C13.6218 15.7422 15.9266 13.565 16.7432 10.7544Z" fill="#525866"/>
</svg>
