<svg width="24" height="26" viewBox="0 0 24 26" fill="none" xmlns="http://www.w3.org/2000/svg">
<mask id="mask0_1_12545" style="mask-type:alpha" maskUnits="userSpaceOnUse" x="2" y="5" width="20" height="17">
<path fill-rule="evenodd" clip-rule="evenodd" d="M13.1 6.5C12.5982 5.57562 11.6307 5 10.5789 5H5C3.34315 5 2 6.34315 2 8V10V16C2 18.8284 2 20.2426 2.87868 21.1213C3.75736 22 5.17157 22 8 22H16C18.8284 22 20.2426 22 21.1213 21.1213C22 20.2426 22 18.8284 22 16V13.0694C22 11.1344 22 10.1669 21.5704 9.45301C21.3179 9.03348 20.9665 8.68212 20.547 8.42962C19.8332 8 18.8656 8 16.9306 8H15.6211C14.5693 8 13.6018 7.42438 13.1 6.5Z" fill="white"/>
</mask>
<g mask="url(#mask0_1_12545)">
<path d="M2.87869 21.1213L3.93935 20.0607L2.87869 21.1213ZM21.5704 9.45301L20.2852 10.2265L21.5704 9.45301ZM20.547 8.42962L19.7735 9.71481L20.547 8.42962ZM21.1213 21.1213L20.0607 20.0607L21.1213 21.1213ZM5.00001 6.5H10.5789V3.5H5.00001V6.5ZM3.50001 10V8H0.500007V10H3.50001ZM3.50001 16V10H0.500007V16H3.50001ZM16 20.5H8.00001V23.5H16V20.5ZM20.5 13.0694V16H23.5V13.0694H20.5ZM15.6211 9.5H16.9306V6.5H15.6211V9.5ZM15.6211 6.5C15.1193 6.5 14.6577 6.22537 14.4183 5.78436L11.7817 7.21564C12.5459 8.62338 14.0193 9.5 15.6211 9.5V6.5ZM0.500007 16C0.500007 17.3718 0.496821 18.5516 0.623218 19.4917C0.755416 20.475 1.05354 21.4175 1.81803 22.182L3.93935 20.0607C3.82516 19.9465 3.68394 19.7426 3.59647 19.0919C3.5032 18.3982 3.50001 17.4566 3.50001 16H0.500007ZM8.00001 20.5C6.54339 20.5 5.60183 20.4968 4.90807 20.4035C4.25746 20.3161 4.05354 20.1748 3.93935 20.0607L1.81803 22.182C2.58252 22.9465 3.52505 23.2446 4.50832 23.3768C5.44845 23.5032 6.6282 23.5 8.00001 23.5V20.5ZM23.5 13.0694C23.5 12.1305 23.5015 11.3225 23.4398 10.6633C23.3759 9.98227 23.2345 9.30907 22.8556 8.67952L20.2852 10.2265C20.3359 10.3108 20.4093 10.4783 20.4528 10.9432C20.4985 11.43 20.5 12.0733 20.5 13.0694H23.5ZM16.9306 9.5C17.9267 9.5 18.57 9.50154 19.0568 9.54716C19.5217 9.59074 19.6892 9.66408 19.7735 9.71481L21.3205 7.14444C20.6909 6.76554 20.0177 6.62408 19.3367 6.56025C18.6775 6.49846 17.8695 6.5 16.9306 6.5V9.5ZM22.8556 8.67952C22.4768 8.05022 21.9498 7.52318 21.3205 7.14444L19.7735 9.71481C19.9833 9.84106 20.1589 10.0167 20.2852 10.2265L22.8556 8.67952ZM10.5789 6.5C11.0807 6.5 11.5423 6.77463 11.7817 7.21564L14.4183 5.78436C13.6541 4.37662 12.1807 3.5 10.5789 3.5V6.5ZM16 23.5C17.3718 23.5 18.5516 23.5032 19.4917 23.3768C20.475 23.2446 21.4175 22.9465 22.182 22.182L20.0607 20.0607C19.9465 20.1748 19.7426 20.3161 19.0919 20.4035C18.3982 20.4968 17.4566 20.5 16 20.5V23.5ZM20.5 16C20.5 17.4566 20.4968 18.3982 20.4035 19.0919C20.3161 19.7426 20.1748 19.9465 20.0607 20.0607L22.182 22.182C22.9465 21.4175 23.2446 20.475 23.3768 19.4917C23.5032 18.5516 23.5 17.3718 23.5 16H20.5ZM5.00001 3.5C2.51473 3.5 0.500007 5.51472 0.500007 8H3.50001C3.50001 7.17157 4.17158 6.5 5.00001 6.5V3.5Z" fill="#1B1B1B"/>
<path d="M8.75 16.25H15.25" stroke="#1B1B1B" stroke-width="1.5" stroke-linecap="round"/>
</g>
</svg>
