<svg width="16" height="20" viewBox="0 0 16 20" fill="none" xmlns="http://www.w3.org/2000/svg">
<path opacity="0.3" d="M8.56577 1.66675H5.8385C3.48148 1.66675 2.30297 1.66675 1.57073 2.39898C0.838501 3.13121 0.838501 4.30973 0.838501 6.66675V13.4849C0.838501 14.896 0.838501 15.6015 1.0618 16.165C1.42079 17.0708 2.17999 17.7854 3.14248 18.1232C3.74118 18.3334 4.49079 18.3334 5.99002 18.3334C8.61366 18.3334 9.92548 18.3334 10.9732 17.9656C12.6576 17.3743 13.9862 16.1239 14.6144 14.5386C15.0052 13.5525 15.0052 12.3179 15.0052 9.84857V7.72735C15.0052 5.16955 15.0052 3.89064 14.2988 3.00249C14.0964 2.74802 13.8563 2.5221 13.5859 2.33161C12.6423 1.66675 11.2834 1.66675 8.56577 1.66675Z" fill="#525866"/>
<path d="M12.2274 12.7778C13.7616 12.7778 15.0052 11.5341 15.0052 10C15.3756 11.6667 15.3385 15.5 12.2274 17.5C11.7645 17.7778 10.0052 18.3333 6.67188 18.3333C8.206 18.3333 9.44965 17.0897 9.44965 15.5556C9.44965 15.0007 9.35244 14.3466 9.49698 13.8072C9.6254 13.3279 9.99978 12.9535 10.4791 12.8251C11.0185 12.6806 11.6726 12.7778 12.2274 12.7778Z" fill="white" stroke="#525866" stroke-width="1.5" stroke-linecap="round" stroke-linejoin="round"/>
<path d="M8.41663 1.66675H8.6439C11.3616 1.66675 12.7204 1.66675 13.6641 2.33161C13.9344 2.5221 14.1745 2.74802 14.3769 3.00249C15.0833 3.89064 15.0833 5.16955 15.0833 7.72735V9.84857C15.0833 12.3179 15.0833 13.5525 14.6925 14.5386C14.0643 16.1239 12.7357 17.3743 11.0513 17.9656C10.0036 18.3334 8.69178 18.3334 6.06814 18.3334C4.56892 18.3334 3.81931 18.3334 3.22061 18.1232C2.25812 17.7854 1.49892 17.0708 1.13993 16.165C0.916626 15.6015 0.916626 14.896 0.916626 13.4849V10.0001" stroke="#525866" stroke-width="1.5" stroke-linecap="round" stroke-linejoin="round"/>
<path d="M15.0833 10C15.0833 11.5341 13.8397 12.7778 12.3056 12.7778C11.7507 12.7778 11.0966 12.6806 10.5572 12.8251C10.0779 12.9535 9.70353 13.3279 9.5751 13.8072C9.43056 14.3466 9.52778 15.0007 9.52778 15.5556C9.52778 17.0897 8.28412 18.3333 6.75 18.3333" stroke="#525866" stroke-width="1.5" stroke-linecap="round" stroke-linejoin="round"/>
<path d="M1.75 3.75008C2.15961 3.32867 3.24981 1.66675 3.83333 1.66675M5.91667 3.75008C5.50706 3.32867 4.41686 1.66675 3.83333 1.66675M3.83333 1.66675L3.83333 8.33341" stroke="#525866" stroke-width="1.5" stroke-linecap="round" stroke-linejoin="round"/>
</svg>
