<svg width="19" height="18" viewBox="0 0 19 18" fill="none" xmlns="http://www.w3.org/2000/svg">
<g clip-path="url(#clip0_1_12287)">
<path fill-rule="evenodd" clip-rule="evenodd" d="M11.6889 1.1007C12.4671 0.885704 13.3585 0.884221 14.123 1.56503C14.9554 2.30628 15.1707 3.42968 15.0111 4.47619C14.8501 5.5323 14.3003 6.6235 13.4347 7.47759C13.1412 7.76724 12.6685 7.7641 12.3788 7.47058C12.0892 7.17706 12.0923 6.70431 12.3858 6.41466C13.0336 5.77542 13.4247 4.97392 13.5348 4.25115C13.6465 3.51877 13.4632 2.9771 13.1299 2.68026C12.8814 2.459 12.5851 2.40238 12.0866 2.54011C11.5861 2.67839 11.0372 2.97151 10.3852 3.31968C10.3352 3.34638 10.2846 3.3734 10.2334 3.40069C9.56696 3.75582 8.77783 4.16677 7.99732 4.30476C7.59187 4.37643 7.15826 4.38137 6.72413 4.25237C6.28419 4.12165 5.88853 3.86656 5.54581 3.48632C5.26972 3.18001 5.29422 2.70789 5.60053 2.4318C5.90684 2.15571 6.37897 2.18021 6.65506 2.48652C6.83136 2.68212 6.99686 2.77555 7.14946 2.82089C7.30787 2.86796 7.4982 2.8765 7.73735 2.83422C8.24604 2.74429 8.82878 2.45706 9.53109 2.08281C9.59041 2.0512 9.65074 2.01887 9.71196 1.98606C10.321 1.65969 11.0185 1.28591 11.6889 1.1007Z" fill="#0E121B"/>
<path opacity="0.4" d="M14.3956 4.36371C14.7897 4.45838 15.1399 4.6066 15.43 4.89664C15.7244 5.19105 15.8726 5.54749 15.9671 5.94859C16.0563 6.32737 16.1089 6.80161 16.1718 7.36751L16.2977 8.49972C16.368 9.12665 16.4228 9.61562 16.2621 10.0739C16.1013 10.5322 15.753 10.8798 15.3065 11.3254L11.3012 15.3306L11.3012 15.3306C10.805 15.8268 10.3929 16.2389 10.0223 16.5217C9.63184 16.8196 9.22222 17.0263 8.72759 17.0263C8.23296 17.0263 7.82333 16.8196 7.43289 16.5217C7.06223 16.2389 6.65021 15.8269 6.15401 15.3306L6.15396 15.3306L4.99604 14.1727L4.996 14.1726C4.49977 13.6764 4.08772 13.2644 3.80492 12.8937C3.50702 12.5033 3.30029 12.0937 3.30029 11.599C3.30029 11.1044 3.50702 10.6948 3.80492 10.3043C4.08773 9.93367 4.49979 9.52164 4.99604 9.02542L8.92565 5.0958L9.00122 5.02014C9.44685 4.5736 9.79441 4.22533 10.2527 4.06457C10.711 3.90381 11.2 3.95864 11.8269 4.02895L14.3956 4.36371Z" fill="#0E121B"/>
<path fill-rule="evenodd" clip-rule="evenodd" d="M11.7233 8.60429C11.9418 8.82316 11.9416 9.17773 11.7227 9.39625L11.6358 9.48295C11.8033 9.83813 11.8373 10.2406 11.735 10.6135C11.6532 10.9118 11.345 11.0873 11.0468 11.0055C10.7485 10.9237 10.573 10.6156 10.6549 10.3173C10.7017 10.1466 10.6574 9.95117 10.5165 9.81046C10.3064 9.60069 9.98084 9.60731 9.78975 9.79808C9.64436 9.94323 9.64798 10.0105 9.64866 10.023L9.64866 10.0231C9.65032 10.0541 9.67437 10.1787 9.9097 10.4136C10.2262 10.7296 10.492 11.1125 10.524 11.5704C10.5576 12.0513 10.3253 12.4582 9.99167 12.7912C9.62211 13.1602 9.17845 13.336 8.71203 13.2846C8.47209 13.2581 8.25205 13.1742 8.0554 13.0575L7.98935 13.1235C7.77047 13.342 7.4159 13.3417 7.19739 13.1228C6.97887 12.9039 6.97916 12.5494 7.19804 12.3308L7.27685 12.2522C7.12243 11.9548 7.05492 11.6239 7.08354 11.2997C7.11073 10.9916 7.38253 10.7639 7.69061 10.7911C7.99869 10.8183 8.2264 11.0901 8.1992 11.3982C8.1848 11.5613 8.24538 11.7584 8.40408 11.9168C8.58032 12.0927 8.7316 12.1599 8.8349 12.1713C8.91259 12.1799 9.03221 12.1665 9.20037 11.9986C9.40451 11.7948 9.40943 11.687 9.40674 11.6485C9.40245 11.5871 9.35843 11.4459 9.11839 11.2062C8.79721 10.8856 8.5534 10.5137 8.53027 10.0832C8.50615 9.63411 8.72842 9.27505 8.99844 9.00547C9.49921 8.50553 10.2404 8.40731 10.8435 8.69134L10.9314 8.60364C11.1502 8.38512 11.5048 8.38541 11.7233 8.60429Z" fill="#0E121B"/>
</g>
<defs>
<clipPath id="clip0_1_12287">
<rect width="17.92" height="17.92" fill="white" transform="translate(0.873291 0.0400391)"/>
</clipPath>
</defs>
</svg>
