<svg width="19" height="18" viewBox="0 0 19 18" fill="none" xmlns="http://www.w3.org/2000/svg">
<g clip-path="url(#clip0_1_12305)">
<path opacity="0.4" d="M7.67274 17.0265C7.44926 17.0265 7.26029 16.9601 7.09325 16.8776C6.94363 16.8038 6.77774 16.6992 6.60256 16.5887L6.60254 16.5887L5.15576 15.6763C4.96544 15.5562 4.8565 15.4883 4.77122 15.4456C4.69227 15.4023 4.63571 15.4236 4.61731 15.4397C4.53285 15.4794 4.42008 15.5478 4.21638 15.6763L3.83655 15.9371C3.67918 16.0453 3.48949 16.1703 3.28763 16.2759C2.93514 16.4603 2.30745 16.7128 1.7411 16.348C1.35778 16.1011 1.2376 15.6943 1.18786 15.3367C1.13935 14.988 1.13937 14.5323 1.1394 14.0031V14.0031L1.13941 6.01296C1.13939 4.98204 1.13938 4.15211 1.22632 3.49958C1.31649 2.8229 1.5092 2.25356 1.95773 1.80097C2.40695 1.34768 2.97323 1.15228 3.64624 1.06098C4.29389 0.973119 5.11724 0.97313 6.13808 0.973145H6.13812H7.67274H15.1514C15.4607 0.973145 15.7114 1.22387 15.7114 1.53315C15.7114 1.84004 15.4645 2.08927 15.1585 2.0931C15.145 2.09777 15.092 2.12272 15.0039 2.23354C14.8796 2.3901 14.743 2.6512 14.6178 3.02367C14.3694 3.76288 14.2061 4.81984 14.2061 6.01315L14.2061 14.0031C14.2061 14.5323 14.2061 14.988 14.1576 15.3367C14.1079 15.6943 13.9877 16.1011 13.6044 16.348C13.038 16.7128 12.4103 16.4603 12.0578 16.2759C11.856 16.1703 11.6663 16.0453 11.5089 15.9371L11.1291 15.6763C10.9254 15.5478 10.8126 15.4794 10.7282 15.4397C10.7097 15.4236 10.6532 15.4023 10.5742 15.4456C10.489 15.4883 10.38 15.5562 10.1897 15.6763L8.74292 16.5887C8.56774 16.6992 8.40183 16.8038 8.25221 16.8776C8.08517 16.9601 7.89623 17.0265 7.67274 17.0265Z" fill="#0E121B"/>
<path fill-rule="evenodd" clip-rule="evenodd" d="M4.12622 4.51972C4.12622 4.21044 4.37694 3.95972 4.68622 3.95972H10.6596C10.9688 3.95972 11.2196 4.21044 11.2196 4.51972C11.2196 4.829 10.9688 5.07972 10.6596 5.07972H4.68622C4.37694 5.07972 4.12622 4.829 4.12622 4.51972Z" fill="#0E121B"/>
<path fill-rule="evenodd" clip-rule="evenodd" d="M6.7395 7.50665C6.7395 7.81593 6.48878 8.06665 6.1795 8.06665H4.68617C4.37689 8.06665 4.12617 7.81593 4.12617 7.50665C4.12617 7.19737 4.37689 6.94665 4.68617 6.94665H6.1795C6.48878 6.94665 6.7395 7.19737 6.7395 7.50665Z" fill="#0E121B"/>
<path fill-rule="evenodd" clip-rule="evenodd" d="M9.53962 6.94653C9.8489 6.94653 10.0996 7.19725 10.0996 7.50653V7.68777C10.5548 7.83484 10.9356 8.15902 11.1151 8.60346C11.231 8.89022 11.0924 9.2166 10.8056 9.33244C10.5189 9.44828 10.1925 9.30971 10.0767 9.02294C10.0188 8.87979 9.82814 8.71987 9.53962 8.71987C9.15776 8.71987 8.97962 8.97581 8.97962 9.13987C8.97962 9.30392 9.15776 9.55987 9.53962 9.55987C10.3949 9.55987 11.2196 10.1814 11.2196 11.0999C11.2196 11.813 10.7223 12.3472 10.0996 12.5503V12.7332C10.0996 13.0425 9.8489 13.2932 9.53962 13.2932C9.23034 13.2932 8.97962 13.0425 8.97962 12.7332V12.552C8.52447 12.4049 8.14364 12.0807 7.96411 11.6363C7.84827 11.3495 7.98684 11.0231 8.27361 10.9073C8.56037 10.7915 8.88675 10.93 9.00259 11.2168C9.06041 11.3599 9.2511 11.5199 9.53962 11.5199C9.92148 11.5199 10.0996 11.2639 10.0996 11.0999C10.0996 10.9358 9.92148 10.6799 9.53962 10.6799C8.68436 10.6799 7.85962 10.0583 7.85962 9.13987C7.85962 8.42671 8.3569 7.89253 8.97962 7.68939V7.50653C8.97962 7.19725 9.23034 6.94653 9.53962 6.94653Z" fill="#0E121B"/>
<path d="M14.2061 6.57314L15.1876 6.57315C15.519 6.5732 15.8271 6.57324 16.0784 6.53568C16.3614 6.49337 16.6506 6.39359 16.8811 6.13647C17.105 5.88664 17.1785 5.60263 17.1907 5.32042C17.2012 5.07813 17.1672 4.7914 17.1318 4.4932L17.1275 4.45675C17.0201 3.55098 16.8184 2.74007 16.5373 2.13799C16.3973 1.838 16.2251 1.5626 16.012 1.35462C15.7968 1.14454 15.5065 0.973436 15.1523 0.973145C15.4611 0.973634 15.7114 1.22417 15.7114 1.53315C15.7114 1.84004 15.4645 2.08927 15.1585 2.0931C15.1568 2.09368 15.1546 2.09457 15.1517 2.09589C15.165 2.10227 15.1909 2.11821 15.2297 2.15609C15.3121 2.23653 15.4152 2.38198 15.5224 2.61168C15.7359 3.06898 15.9162 3.75282 16.0152 4.58855C16.0565 4.93701 16.0779 5.1315 16.0718 5.27182C16.0672 5.37661 16.049 5.38784 16.0468 5.3892C16.0442 5.39215 16.0425 5.39402 16.0331 5.39832C16.0187 5.40494 15.9844 5.41728 15.9128 5.42799C15.7543 5.45168 15.5317 5.45314 15.1514 5.45314H14.2182C14.2102 5.63585 14.2061 5.82276 14.2061 6.01314L14.2061 6.57314Z" fill="#0E121B"/>
<path d="M14.6178 3.02367C14.6178 3.02367 14.6178 3.02367 14.6178 3.02367V3.02367Z" fill="#0E121B"/>
</g>
<defs>
<clipPath id="clip0_1_12305">
<rect width="17.92" height="17.92" fill="white" transform="translate(0.206543 0.0400391)"/>
</clipPath>
</defs>
</svg>
