<svg width="12" height="17" viewBox="0 0 12 17" fill="none" xmlns="http://www.w3.org/2000/svg">
<path opacity="0.4" d="M3.04471 0.53879C3.14728 0.525001 3.24061 0.597606 3.25545 0.700024L3.25998 0.731298L3.26182 0.743095L3.26709 0.77471L3.26709 0.774712C3.33489 1.18164 3.39386 1.53562 3.47688 1.81849C3.56621 2.12286 3.70016 2.40865 3.95799 2.6374C4.22468 2.87401 4.53182 2.97341 4.86083 3.01888C5.17101 3.06175 5.55382 3.06261 5.99992 3.06261C6.44602 3.06261 6.82882 3.06175 7.13901 3.01888C7.46801 2.97341 7.77515 2.87401 8.04184 2.6374C8.29967 2.40865 8.43362 2.12285 8.52295 1.81849C8.60597 1.53562 8.66494 1.18165 8.73274 0.774722L8.73274 0.774711L8.73806 0.743103L8.7449 0.698412C8.76046 0.596769 8.85338 0.525089 8.95529 0.53879C9.73249 0.643282 10.3725 0.864911 10.8789 1.37127C11.3853 1.87762 11.6069 2.51768 11.7114 3.29488C11.8125 4.04719 11.8125 5.00642 11.8125 6.20836V10.792C11.8125 11.9939 11.8125 12.9531 11.7114 13.7055C11.6069 14.4827 11.3853 15.1227 10.8789 15.6291C10.3725 16.1354 9.73249 16.3571 8.95529 16.4615C8.20298 16.5627 7.24375 16.5627 6.04181 16.5627H5.9582C4.75625 16.5627 3.79703 16.5627 3.04471 16.4615C2.26751 16.3571 1.62745 16.1354 1.1211 15.6291C0.614744 15.1227 0.393115 14.4827 0.288623 13.7055C0.187478 12.9531 0.187488 11.9939 0.1875 10.792V10.792V6.20834V6.20834C0.187488 5.00641 0.187478 4.04719 0.288623 3.29488C0.393115 2.51768 0.614744 1.87762 1.1211 1.37127C1.62745 0.864911 2.26751 0.643282 3.04471 0.53879Z" fill="#525866"/>
<path d="M7.53121 0.446937C7.59137 0.448204 7.63649 0.502174 7.62738 0.561647C7.55311 1.00727 7.50457 1.29226 7.44316 1.50151C7.38574 1.69714 7.33471 1.76038 7.29489 1.79571C7.25108 1.83458 7.18287 1.87691 6.98466 1.90431C6.76764 1.9343 6.47139 1.93744 5.99959 1.93744C5.5278 1.93744 5.23154 1.9343 5.01453 1.90431C4.81632 1.87691 4.74811 1.83458 4.7043 1.79571C4.66448 1.76038 4.61344 1.69714 4.55603 1.50151C4.49472 1.2926 4.44624 1.00822 4.37217 0.563866C4.36336 0.503041 4.40961 0.448164 4.47106 0.446876C4.91911 0.437489 5.41361 0.437494 5.95787 0.4375H6.0415C6.58694 0.437494 7.0824 0.437489 7.53121 0.446937Z" fill="#525866"/>
<path fill-rule="evenodd" clip-rule="evenodd" d="M5.25 13.9375C4.93934 13.9375 4.6875 14.1893 4.6875 14.5C4.6875 14.8107 4.93934 15.0625 5.25 15.0625H6.75C7.06066 15.0625 7.3125 14.8107 7.3125 14.5C7.3125 14.1893 7.06066 13.9375 6.75 13.9375H5.25Z" fill="#525866"/>
</svg>
