<svg width="20" height="20" viewBox="0 0 20 20" fill="none" xmlns="http://www.w3.org/2000/svg">
<path d="M11.4291 2.81549L12.8407 5.63882C13.0332 6.03184 13.5466 6.40882 13.9797 6.48101L16.5383 6.90611C18.1746 7.17882 18.5596 8.36591 17.3805 9.53695L15.3914 11.5261C15.0545 11.863 14.87 12.5127 14.9743 12.9779L15.5438 15.4403C15.9929 17.3893 14.9582 18.1433 13.2338 17.1247L10.8355 15.705C10.4024 15.4483 9.68854 15.4483 9.2474 15.705L6.84917 17.1247C5.13271 18.1433 4.09 17.3813 4.53917 15.4403L5.10865 12.9779C5.21292 12.5127 5.02844 11.863 4.69157 11.5261L2.7024 9.53695C1.53136 8.36591 1.90834 7.17882 3.54459 6.90611L6.10323 6.48101C6.52834 6.40882 7.04167 6.03184 7.23417 5.63882L8.64584 2.81549C9.41584 1.28351 10.6671 1.28351 11.4291 2.81549Z" fill="#006EFF"/>
</svg>
