<svg width="18" height="18" viewBox="0 0 18 18" fill="none" xmlns="http://www.w3.org/2000/svg">
<path fill-rule="evenodd" clip-rule="evenodd" d="M13.4063 8.90625C13.8206 8.90625 14.1563 9.24204 14.1563 9.65625V9.95523C14.7116 10.0829 15.2136 10.3493 15.6198 10.7167L16.0008 10.4718C16.3492 10.2478 16.8132 10.3487 17.0372 10.6971C17.2612 11.0455 17.1603 11.5096 16.8119 11.7336L16.4638 11.9574C16.5882 12.2925 16.6563 12.6542 16.6563 13.0312C16.6563 13.4084 16.5882 13.7702 16.4637 14.1053L16.8116 14.3289C17.16 14.5529 17.2609 15.017 17.0369 15.3654C16.8129 15.7138 16.3489 15.8147 16.0004 15.5907L15.6196 15.3459C15.2135 15.7132 14.7116 15.9796 14.1563 16.1073V16.4062C14.1563 16.8205 13.8206 17.1562 13.4063 17.1562C12.9921 17.1562 12.6563 16.8205 12.6563 16.4062V16.1073C12.1011 15.9796 11.5992 15.7132 11.1931 15.3459L10.8122 15.5907C10.4638 15.8147 9.99978 15.7138 9.77579 15.3654C9.55179 15.017 9.65265 14.5529 10.0011 14.3289L10.349 14.1053C10.2245 13.7702 10.1563 13.4084 10.1563 13.0312C10.1563 12.6542 10.2245 12.2925 10.3489 11.9574L10.0008 11.7336C9.65234 11.5096 9.55147 11.0455 9.77547 10.6971C9.99946 10.3487 10.4635 10.2478 10.8119 10.4718L11.1929 10.7167C11.599 10.3493 12.1011 10.0829 12.6563 9.95523V9.65625C12.6563 9.24204 12.9921 8.90625 13.4063 8.90625ZM13.4063 11.3705C12.7877 11.3705 12.2524 11.6736 11.9425 12.121C11.7605 12.3837 11.6563 12.6957 11.6563 13.0312C11.6563 13.3668 11.7605 13.6789 11.9426 13.9416C12.2525 14.3889 12.7877 14.692 13.4063 14.692C14.0249 14.692 14.5602 14.3889 14.8701 13.9416C15.0521 13.6789 15.1563 13.3669 15.1563 13.0312C15.1563 12.6957 15.0522 12.3837 14.8702 12.121C14.5603 11.6736 14.025 11.3705 13.4063 11.3705Z" fill="#525866"/>
<g opacity="0.4">
<path d="M8.15637 0.84375C5.98175 0.84375 4.21887 2.60663 4.21887 4.78125C4.21887 6.95587 5.98175 8.71875 8.15637 8.71875C10.331 8.71875 12.0939 6.95587 12.0939 4.78125C12.0939 2.60663 10.331 0.84375 8.15637 0.84375Z" fill="#525866"/>
<path d="M6.95258 9.92815C7.54015 9.84528 8.13499 9.82344 8.7264 9.86262C8.834 9.86974 8.88737 9.99801 8.82905 10.0887C8.38687 10.7765 8.45106 11.6445 8.92649 12.255C9.00187 12.3518 9.03957 12.4002 9.05163 12.4413C9.06369 12.4824 9.05869 12.5373 9.04868 12.647C9.03714 12.7737 9.03123 12.9019 9.03123 13.0312C9.03123 13.1608 9.03715 13.289 9.04871 13.4158C9.05872 13.5255 9.06373 13.5804 9.05167 13.6215C9.03962 13.6626 9.00194 13.711 8.92659 13.8078C8.45136 14.4182 8.38725 15.2861 8.82937 15.9738C8.86898 16.0354 8.91159 16.0951 8.95688 16.1528C9.34025 16.6404 9.53194 16.8843 9.51143 16.9265C9.49091 16.9688 9.22316 16.9688 8.68764 16.9688H4.84929C3.48556 16.9688 2.43122 16.298 1.55263 15.4609C1.04337 14.9758 0.789522 14.4297 0.853127 13.8478C0.912936 13.3007 1.24193 12.854 1.58818 12.5151C2.1418 11.9732 2.95001 11.5173 3.48462 11.2157C3.60657 11.1469 3.71433 11.0861 3.80154 11.0341C4.78017 10.4514 5.85422 10.0831 6.95258 9.92815Z" fill="#525866"/>
</g>
</svg>
