<svg width="3" height="14" viewBox="0 0 3 14" fill="none" xmlns="http://www.w3.org/2000/svg">
<path d="M1.5 13.75C2.11875 13.75 2.625 13.2437 2.625 12.625C2.625 12.0063 2.11875 11.5 1.5 11.5C0.88125 11.5 0.375 12.0063 0.375 12.625C0.375 13.2438 0.88125 13.75 1.5 13.75ZM1.5 2.5C2.11875 2.5 2.625 1.99375 2.625 1.375C2.625 0.75625 2.11875 0.25 1.5 0.25C0.881249 0.25 0.374999 0.756251 0.374999 1.375C0.374999 1.99375 0.881249 2.5 1.5 2.5ZM1.5 8.125C2.11875 8.125 2.625 7.61875 2.625 7C2.625 6.38125 2.11875 5.875 1.5 5.875C0.881249 5.875 0.374999 6.38125 0.374999 7C0.374999 7.61875 0.88125 8.125 1.5 8.125Z" fill="#0E121B"/>
</svg>
