<svg width="22" height="23" viewBox="0 0 22 23" fill="none" xmlns="http://www.w3.org/2000/svg">
<path opacity="0.4" d="M10.8244 0.756569C10.9413 0.74781 11.0587 0.74781 11.1756 0.756569C11.6792 0.794309 12.0873 1.02155 12.4602 1.31329C12.8109 1.5877 13.1989 1.97573 13.6527 2.42956L13.8949 2.63696L13.8949 2.63697C14.1518 2.85689 14.2802 2.96685 14.4344 3.02828C14.5886 3.08971 14.7574 3.09821 15.0951 3.11521L15.4673 3.13394C16.1785 3.1339 16.7864 3.13387 17.2722 3.19919C17.7909 3.26892 18.2811 3.42526 18.6779 3.82206C19.0747 4.21886 19.2311 4.70911 19.3008 5.2278C19.3661 5.71358 19.3661 6.32148 19.3661 7.03269L19.3848 7.40486V7.40487C19.4018 7.74259 19.4103 7.91145 19.4717 8.0656C19.5331 8.21975 19.6431 8.34818 19.863 8.60504L19.863 8.60506L20.0704 8.84726C20.5242 9.30106 20.9123 9.68907 21.1867 10.0398C21.4785 10.4127 21.7057 10.8208 21.7434 11.3244C21.7522 11.4413 21.7522 11.5587 21.7434 11.6756C21.7057 12.1792 21.4785 12.5873 21.1867 12.9602C20.9123 13.3109 20.5243 13.6989 20.0705 14.1527L19.863 14.3949C19.6431 14.6518 19.5331 14.7802 19.4717 14.9344C19.4103 15.0886 19.4018 15.2574 19.3848 15.5951V15.5951L19.3661 15.9673C19.3661 16.6785 19.3661 17.2864 19.3008 17.7722C19.2311 18.2909 19.0747 18.7811 18.6779 19.1779C18.2811 19.5747 17.7909 19.7311 17.2722 19.8008C16.7864 19.8661 16.1785 19.8661 15.4673 19.8661L15.0377 19.8959C14.6994 19.9195 14.5302 19.9312 14.3769 19.9959C14.2236 20.0606 14.0971 20.1735 13.8442 20.3994L13.6527 20.5704C13.1989 21.0242 12.8109 21.4123 12.4602 21.6867C12.0873 21.9785 11.6792 22.2057 11.1756 22.2434C11.0587 22.2522 10.9413 22.2522 10.8244 22.2434C10.3208 22.2057 9.9127 21.9785 9.53981 21.6867C9.18909 21.4123 8.8011 21.0243 8.34733 20.5705L8.3473 20.5704L8.10506 20.363L8.10504 20.363C7.84819 20.1431 7.71976 20.0331 7.5656 19.9717C7.41145 19.9103 7.24259 19.9018 6.90487 19.8848H6.90485L6.53269 19.8661C5.82148 19.8661 5.21358 19.8661 4.7278 19.8008C4.20911 19.7311 3.71886 19.5747 3.32206 19.1779C2.92526 18.7811 2.76892 18.2909 2.69919 17.7722C2.63387 17.2864 2.6339 16.6785 2.63394 15.9673L2.61521 15.5951C2.59821 15.2574 2.58971 15.0886 2.52828 14.9344C2.46685 14.7802 2.35689 14.6518 2.13697 14.3949L2.13696 14.3949L1.92956 14.1527C1.47573 13.6989 1.0877 13.3109 0.813294 12.9602C0.521547 12.5873 0.294309 12.1792 0.256569 11.6756C0.24781 11.5587 0.24781 11.4413 0.256569 11.3244C0.294309 10.8208 0.521547 10.4127 0.813294 10.0398C1.0877 9.68908 1.47573 9.30109 1.92954 8.84731L1.92956 8.8473L2.13696 8.60506C2.35689 8.34819 2.46685 8.21976 2.52828 8.0656C2.58971 7.91144 2.59821 7.74258 2.61521 7.40485L2.63394 7.03268C2.6339 6.32147 2.63387 5.71358 2.69919 5.2278C2.76892 4.70911 2.92526 4.21886 3.32206 3.82206C3.71886 3.42526 4.20911 3.26892 4.7278 3.19919C5.21358 3.13387 5.82147 3.1339 6.53268 3.13394L6.9623 3.10407C7.30062 3.08055 7.46978 3.06878 7.62311 3.0041C7.77643 2.93942 7.9029 2.82646 8.15584 2.60055L8.3473 2.42956C8.80108 1.97573 9.18908 1.5877 9.53981 1.31329C9.91271 1.02155 10.3208 0.794309 10.8244 0.756569Z" fill="#006EFF"/>
<path fill-rule="evenodd" clip-rule="evenodd" d="M10 15.5C10 14.9477 10.4457 14.5 10.9955 14.5H11.0045C11.5543 14.5 12 14.9477 12 15.5C12 16.0523 11.5543 16.5 11.0045 16.5H10.9955C10.4457 16.5 10 16.0523 10 15.5Z" fill="#006EFF"/>
<path fill-rule="evenodd" clip-rule="evenodd" d="M11 12.5C10.4477 12.5 10 12.0523 10 11.5L10 7.5C10 6.94772 10.4477 6.5 11 6.5C11.5523 6.5 12 6.94772 12 7.5L12 11.5C12 12.0523 11.5523 12.5 11 12.5Z" fill="#006EFF"/>
</svg>
