<svg width="18" height="18" viewBox="0 0 18 18" fill="none" xmlns="http://www.w3.org/2000/svg">
<g clip-path="url(#clip0_1_11715)">
<path d="M8.25485 15.75H7.2041C4.51516 15.75 3.17069 15.75 2.33535 14.8988C1.5 14.0476 1.5 12.6775 1.5 9.9375C1.5 7.19746 1.5 5.82744 2.33535 4.97622C3.17069 4.125 4.51516 4.125 7.2041 4.125H10.0561C12.7451 4.125 14.0896 4.125 14.9249 4.97622C15.5676 5.63114 15.7158 6.59317 15.75 8.25" stroke="#006EFF" stroke-width="1.125" stroke-linecap="round" stroke-linejoin="round"/>
<path d="M13.125 14.6438H13.1311M13.1316 13.125V11.6063M16.5 13.125C16.5 14.989 14.989 16.5 13.125 16.5C11.261 16.5 9.75 14.989 9.75 13.125C9.75 11.261 11.261 9.75 13.125 9.75C14.989 9.75 16.5 11.261 16.5 13.125Z" stroke="#006EFF" stroke-width="1.125" stroke-linecap="round"/>
<path d="M12 4.125L11.9255 3.8932C11.5542 2.73817 11.3686 2.16065 10.9267 1.83033C10.4847 1.5 9.89772 1.5 8.72369 1.5H8.52631C7.35228 1.5 6.76527 1.5 6.32333 1.83033C5.8814 2.16065 5.69577 2.73817 5.32451 3.8932L5.25 4.125" stroke="#006EFF" stroke-width="1.125" stroke-linecap="round" stroke-linejoin="round"/>
</g>
<defs>
<clipPath id="clip0_1_11715">
<rect width="18" height="18" fill="white"/>
</clipPath>
</defs>
</svg>
