<svg width="131" height="24" viewBox="0 0 131 24" fill="none" xmlns="http://www.w3.org/2000/svg">
<path d="M8.19466 23L0.332625 0.472244H4.80794L10.9766 19.1295H10.0997L16.2684 0.472244H20.7437L12.9119 23H8.19466ZM29.6175 23.3629C28.0048 23.3629 26.5332 22.9899 25.2027 22.244C23.8924 21.4981 22.8441 20.4801 22.0579 19.1899C21.2918 17.8998 20.9088 16.4281 20.9088 14.7751C20.9088 13.1221 21.2918 11.6504 22.0579 10.3603C22.8441 9.07009 23.8924 8.05205 25.2027 7.30617C26.513 6.56028 27.9846 6.18734 29.6175 6.18734C31.2302 6.18734 32.6918 6.56028 34.0021 7.30617C35.3125 8.05205 36.3507 9.07009 37.1167 10.3603C37.9029 11.6303 38.296 13.1019 38.296 14.7751C38.296 16.4281 37.9029 17.8998 37.1167 19.1899C36.3305 20.4801 35.2822 21.4981 33.9719 22.244C32.6615 22.9899 31.2101 23.3629 29.6175 23.3629ZM29.6175 19.7342C30.5045 19.7342 31.2806 19.5226 31.9459 19.0992C32.6313 18.6759 33.1655 18.0913 33.5485 17.3454C33.9517 16.5793 34.1533 15.7226 34.1533 14.7751C34.1533 13.8075 33.9517 12.9608 33.5485 12.2351C33.1655 11.4892 32.6313 10.9046 31.9459 10.4812C31.2806 10.0377 30.5045 9.81597 29.6175 9.81597C28.7104 9.81597 27.9141 10.0377 27.2287 10.4812C26.5433 10.9046 25.999 11.4892 25.5958 12.2351C25.2128 12.9608 25.0213 13.8075 25.0213 14.7751C25.0213 15.7226 25.2128 16.5793 25.5958 17.3454C25.999 18.0913 26.5433 18.6759 27.2287 19.0992C27.9141 19.5226 28.7104 19.7342 29.6175 19.7342ZM49.4947 23.3629C47.882 23.3629 46.4103 22.9899 45.0798 22.244C43.7695 21.4981 42.7212 20.4801 41.935 19.1899C41.169 17.8998 40.786 16.4281 40.786 14.7751C40.786 13.1221 41.169 11.6504 41.935 10.3603C42.7212 9.07009 43.7695 8.05205 45.0798 7.30617C46.3902 6.56028 47.8618 6.18734 49.4947 6.18734C51.1074 6.18734 52.5689 6.56028 53.8793 7.30617C55.1896 8.05205 56.2278 9.07009 56.9938 10.3603C57.7801 11.6303 58.1732 13.1019 58.1732 14.7751C58.1732 16.4281 57.7801 17.8998 56.9938 19.1899C56.2076 20.4801 55.1594 21.4981 53.849 22.244C52.5387 22.9899 51.0872 23.3629 49.4947 23.3629ZM49.4947 19.7342C50.3817 19.7342 51.1578 19.5226 51.823 19.0992C52.5085 18.6759 53.0427 18.0913 53.4257 17.3454C53.8289 16.5793 54.0305 15.7226 54.0305 14.7751C54.0305 13.8075 53.8289 12.9608 53.4257 12.2351C53.0427 11.4892 52.5085 10.9046 51.823 10.4812C51.1578 10.0377 50.3817 9.81597 49.4947 9.81597C48.5875 9.81597 47.7912 10.0377 47.1058 10.4812C46.4204 10.9046 45.8761 11.4892 45.4729 12.2351C45.0899 12.9608 44.8984 13.8075 44.8984 14.7751C44.8984 15.7226 45.0899 16.5793 45.4729 17.3454C45.8761 18.0913 46.4204 18.6759 47.1058 19.0992C47.7912 19.5226 48.5875 19.7342 49.4947 19.7342ZM61.3284 23V6.5502H65.0477V10.3603L64.6244 9.72526C64.9268 8.53587 65.5315 7.64887 66.4387 7.06426C67.3458 6.47965 68.4143 6.18734 69.644 6.18734C70.9946 6.18734 72.184 6.54012 73.2121 7.24569C74.2402 7.95126 74.9055 8.87857 75.2079 10.0276L74.089 10.1184C74.593 8.80802 75.349 7.8303 76.3569 7.18521C77.3649 6.51996 78.524 6.18734 79.8344 6.18734C81.0036 6.18734 82.0418 6.44941 82.949 6.97354C83.8763 7.49768 84.602 8.23349 85.1261 9.18096C85.6503 10.1083 85.9123 11.1868 85.9123 12.4165V23H81.9511V13.3539C81.9511 12.6282 81.8201 12.0032 81.558 11.4791C81.2959 10.955 80.9331 10.5518 80.4694 10.2696C80.0057 9.96716 79.4413 9.81597 78.776 9.81597C78.1511 9.81597 77.5967 9.96716 77.1129 10.2696C76.6291 10.5518 76.2561 10.955 75.9941 11.4791C75.732 12.0032 75.601 12.6282 75.601 13.3539V23H71.6397V13.3539C71.6397 12.6282 71.5087 12.0032 71.2466 11.4791C70.9846 10.955 70.6116 10.5518 70.1278 10.2696C69.6641 9.96716 69.1098 9.81597 68.4647 9.81597C67.8397 9.81597 67.2854 9.96716 66.8015 10.2696C66.3177 10.5518 65.9448 10.955 65.6827 11.4791C65.4207 12.0032 65.2896 12.6282 65.2896 13.3539V23H61.3284Z" fill="#111111"/>
<path d="M100.422 23.3629C98.8089 23.3629 97.3172 23.0706 95.9464 22.4859C94.5755 21.9013 93.3761 21.0849 92.348 20.0366C91.3199 18.9883 90.5135 17.7586 89.9289 16.3475C89.3644 14.9364 89.0822 13.3942 89.0822 11.721C89.0822 10.0478 89.3543 8.50563 89.8986 7.0945C90.4631 5.6632 91.2493 4.4335 92.2572 3.40539C93.2854 2.35712 94.4848 1.55075 95.8556 0.986301C97.2265 0.401688 98.7182 0.109382 100.331 0.109382C101.944 0.109382 103.385 0.381529 104.655 0.925824C105.945 1.47012 107.034 2.19585 107.921 3.103C108.808 3.99 109.443 4.96772 109.826 6.03615L106.167 7.78999C105.744 6.62076 105.028 5.67328 104.02 4.94756C103.012 4.22183 101.782 3.85897 100.331 3.85897C98.9198 3.85897 97.67 4.19159 96.5814 4.85684C95.5129 5.52209 94.6763 6.43933 94.0716 7.60855C93.487 8.77778 93.1946 10.1486 93.1946 11.721C93.1946 13.2934 93.497 14.6743 94.1018 15.8637C94.7267 17.0329 95.5835 17.9502 96.6721 18.6154C97.7607 19.2807 99.0105 19.6133 100.422 19.6133C101.571 19.6133 102.629 19.3915 103.597 18.948C104.564 18.4844 105.34 17.8393 105.925 17.0128C106.51 16.1661 106.802 15.1682 106.802 14.0191V12.2955L108.677 13.9284H100.331V10.451H110.914V12.7189C110.914 14.4526 110.622 15.9846 110.038 17.3151C109.453 18.6456 108.657 19.7645 107.649 20.6716C106.661 21.5586 105.542 22.234 104.292 22.6976C103.042 23.1411 101.752 23.3629 100.422 23.3629ZM122.031 23.3629C120.418 23.3629 118.946 22.9899 117.616 22.244C116.306 21.4981 115.257 20.4801 114.471 19.1899C113.705 17.8998 113.322 16.4281 113.322 14.7751C113.322 13.1221 113.705 11.6504 114.471 10.3603C115.257 9.07009 116.306 8.05205 117.616 7.30617C118.926 6.56028 120.398 6.18734 122.031 6.18734C123.643 6.18734 125.105 6.56028 126.415 7.30617C127.726 8.05205 128.764 9.07009 129.53 10.3603C130.316 11.6303 130.709 13.1019 130.709 14.7751C130.709 16.4281 130.316 17.8998 129.53 19.1899C128.744 20.4801 127.695 21.4981 126.385 22.244C125.075 22.9899 123.623 23.3629 122.031 23.3629ZM122.031 19.7342C122.918 19.7342 123.694 19.5226 124.359 19.0992C125.044 18.6759 125.579 18.0913 125.962 17.3454C126.365 16.5793 126.566 15.7226 126.566 14.7751C126.566 13.8075 126.365 12.9608 125.962 12.2351C125.579 11.4892 125.044 10.9046 124.359 10.4812C123.694 10.0377 122.918 9.81597 122.031 9.81597C121.124 9.81597 120.327 10.0377 119.642 10.4812C118.956 10.9046 118.412 11.4892 118.009 12.2351C117.626 12.9608 117.434 13.8075 117.434 14.7751C117.434 15.7226 117.626 16.5793 118.009 17.3454C118.412 18.0913 118.956 18.6759 119.642 19.0992C120.327 19.5226 121.124 19.7342 122.031 19.7342Z" fill="#006EFF"/>
</svg>
